<?xml version="1.0" encoding="utf-8"?>
<!-- Generator: Adobe Illustrator 21.0.0, SVG Export Plug-In . SVG Version: 6.00 Build 0)  -->
<svg version="1.1" id="Layer_1" xmlns="http://www.w3.org/2000/svg" xmlns:xlink="http://www.w3.org/1999/xlink" x="0px" y="0px"
	 viewBox="0 0 600 300" style="enable-background:new 0 0 600 300;" xml:space="preserve">
<style type="text/css">
	.st0{font-family:'Popsies';}
	.st1{font-size:70px;}
</style>
<text transform="matrix(0.997 -7.744937e-02 7.744937e-02 0.997 63.8654 181.1611)" class="st0 st1">Ellory Buscemi</text>
<g>
	<g>
		<path d="M42.1,205.4c9.5-3.7,20-5,30-6.7c18.1-3,36.3-5.4,54.5-7.6c50.1-6.2,100.3-11.1,150.6-15.8c52.7-4.9,105.4-9.3,158.2-13.2
			c35.8-2.6,71.7-5.5,107.5-6.5c3.9-0.1,7.9-0.2,11.9-0.1c0.5,0,1.4,0.2,1.8,0.1c0.4-0.1-0.7-0.9-0.5-1c0.2-0.1-0.3,0.5-0.5,0.5
			c-0.9,0.4-2.2,2.2-2.9,2.9c-1.5,1.3-3.1,2.6-4.7,3.9c-19.7,15.6-41.1,29.1-61.2,44.1c-3.3,2.5-6.6,4.9-9.6,7.6
			c-1.3,1.1,0.4,3.4,1.8,2.4c2.6-1.9,9.6-0.8,12.6-0.8c7.7,0.1,15.4,0.5,23.1,1c10.7,0.6,21.5,2,32.3,2.2c0.7,0,1.2-0.5,1.4-1.1
			c0,0,0,0,0,0c0.3-1-0.5-1.8-1.4-1.9c-2.5-0.3-5.4,0.5-7.8,0.9c-5.3,0.8-10.5,1.6-15.7,2.6c-5.1,0.9-10.2,1.9-15.2,3.1
			c-2.6,0.6-5.9,1.1-8.1,2.8c-1,0.8-0.2,2.7,1.1,2.6c2.2-0.2,5.4,1,7.7,1.4c5.3,1,10.6,1.9,16,2.8c4.8,0.8,9.6,1.5,14.4,2
			c2.2,0.2,5.6,0.9,7.5-0.6c1.5-1.2-0.6-3.3-2.1-2.1c-1,0.8-7.3-0.5-9-0.7c-5-0.6-10-1.5-15-2.3c-4.4-0.8-8.8-1.6-13.2-2.4
			c-1.9-0.3-4.3-1.2-6.2-1.1c0.4,0.9,0.7,1.7,1.1,2.6c1.9-1.6,6-1.9,8.4-2.4c4.8-1.1,9.7-2,14.6-2.9c4.8-0.8,9.5-1.6,14.3-2.3
			c2.3-0.3,5.1-1.1,7.4-0.8c-0.5-0.6-1-1.3-1.4-1.9c0,0,0,0,0,0c0.5-0.4,1-0.7,1.4-1.1c-11.4-0.3-22.9-1.7-34.3-2.4
			c-7.8-0.4-15.6-0.8-23.5-0.9c-3.1,0-9-0.8-11.7,1.2c0.6,0.8,1.2,1.6,1.8,2.4c8.1-7.2,17.3-13.3,26.1-19.5
			c11.3-8,22.7-15.9,33.8-24c4.1-3,8.3-6.1,12.3-9.3c2.3-1.8,5.5-3.9,6.9-6.5c2.2-3.9-2.4-3.9-5.1-3.9c-30.8-0.6-61.9,2.6-92.6,4.7
			c-52.4,3.6-104.7,7.9-157,12.6c-53.2,4.8-106.3,9.9-159.4,16.1c-20.1,2.4-40.2,4.9-60.3,7.9c-12.7,1.9-25.6,3.7-38,7.2
			c-1.6,0.5-3.3,0.9-4.8,1.6C39.5,203.2,40.3,206.1,42.1,205.4L42.1,205.4z"/>
	</g>
</g>
</svg>
